nColumns=19
nRows=63
DataType=double
version=3
OpenSimVersion=4.1
endheader
time	ground_force_calcn_r_vx	ground_force_calcn_r_vy	ground_force_calcn_r_vz	ground_force_calcn_r_px	ground_force_calcn_r_py	ground_force_calcn_r_pz	ground_force_calcn_r_mx	ground_force_calcn_r_my	ground_force_calcn_r_mz	ground_force_calcn_l_vx	ground_force_calcn_l_vy	ground_force_calcn_l_vz	ground_force_calcn_l_px	ground_force_calcn_l_py	ground_force_calcn_l_pz	ground_force_calcn_l_mx	ground_force_calcn_l_my	ground_force_calcn_l_mz
0	-1.46217	328.449	-35.7098	-0.245939	0	-0.401706	0.00497438	-1.1174	0.121487	0.549285	322.683	36.9345	-0.248781	0	-0.79371	0.00202797	1.19135	0.136363
0.01	-1.37209	328.085	-35.6336	-0.246051	0	-0.401768	0.00471143	-1.12656	0.122357	0.560021	322.904	36.991	-0.24876	0	-0.793655	0.00208577	1.20264	0.137771
0.02	-1.27819	327.655	-35.5468	-0.246178	0	-0.401836	0.00442642	-1.13469	0.1231	0.574502	323.218	37.0649	-0.248741	0	-0.793605	0.00215606	1.21301	0.139101
0.03	-1.18174	327.159	-35.4498	-0.246321	0	-0.401906	0.00412317	-1.14148	0.123687	0.593206	323.633	37.1582	-0.248725	0	-0.793566	0.00223992	1.22202	0.140307
0.04	-1.08296	326.596	-35.3431	-0.246483	0	-0.401981	0.00380266	-1.14679	0.124102	0.616439	324.157	37.2729	-0.248713	0	-0.793537	0.00233796	1.22943	0.141365
0.05	-0.981285	325.969	-35.2263	-0.246666	0	-0.402059	0.00346349	-1.15052	0.124333	0.644352	324.791	37.4106	-0.248706	0	-0.793518	0.00245044	1.23516	0.142271
0.06	-0.8756	325.281	-35.0989	-0.246872	0	-0.402142	0.00310256	-1.15258	0.124368	0.676913	325.533	37.5721	-0.248708	0	-0.793507	0.00257691	1.23926	0.143032
0.07	-0.764682	324.535	-34.9603	-0.247106	0	-0.40223	0.00271654	-1.15292	0.124197	0.713862	326.373	37.7578	-0.248719	0	-0.793504	0.00271613	1.2418	0.143663
0.08	-0.64729	323.738	-34.8102	-0.247367	0	-0.402325	0.00230228	-1.15147	0.123813	0.754764	327.299	37.967	-0.248741	0	-0.793505	0.00286633	1.24297	0.144185
0.09	-0.522668	322.895	-34.6482	-0.24766	0	-0.402427	0.00185858	-1.1482	0.123208	0.799161	328.298	38.1985	-0.248777	0	-0.793509	0.003026	1.24309	0.144637
0.1	-0.390585	322.011	-34.4747	-0.247987	0	-0.402541	0.00138646	-1.14304	0.122375	0.846711	329.356	38.4504	-0.248829	0	-0.793514	0.00319436	1.24255	0.145061
0.11	-0.251477	321.095	-34.2902	-0.248346	0	-0.402666	0.000889658	-1.13595	0.121309	0.897172	330.457	38.7206	-0.248897	0	-0.793517	0.00337127	1.24174	0.145499
0.12	-0.10638	320.154	-34.0956	-0.248738	0	-0.402804	0.000374426	-1.12685	0.120006	0.950224	331.587	39.0064	-0.24898	0	-0.793518	0.0035561	1.24092	0.145977
0.13	0.0432663	319.197	-33.8924	-0.249159	0	-0.402953	-0.000151233	-1.11572	0.118468	1.00535	332.732	39.3049	-0.249079	0	-0.793517	0.00374744	1.24026	0.146509
0.14	0.195689	318.229	-33.6825	-0.249605	0	-0.403113	-0.000678038	-1.10262	0.116706	1.06163	333.883	39.613	-0.24919	0	-0.793514	0.00394217	1.23982	0.147096
0.15	0.34845	317.258	-33.4681	-0.250072	0	-0.403281	-0.0011946	-1.08766	0.114739	1.11781	335.031	39.9286	-0.24931	0	-0.793513	0.00413552	1.2395	0.147723
0.16	0.498532	316.29	-33.2511	-0.250551	0	-0.403453	-0.00168813	-1.07102	0.112595	1.17251	336.168	40.2502	-0.249436	0	-0.793513	0.00432204	1.23916	0.148368
0.17	0.642769	315.327	-33.0334	-0.251035	0	-0.403628	-0.0021464	-1.05297	0.110309	1.22456	337.291	40.5772	-0.249565	0	-0.793516	0.00449692	1.23863	0.149011
0.18	0.778403	314.37	-32.8167	-0.251518	0	-0.403805	-0.00256001	-1.0339	0.107928	1.27302	338.399	40.9093	-0.249691	0	-0.793526	0.0046562	1.23773	0.14963
0.19	0.903305	313.42	-32.6021	-0.251991	0	-0.403979	-0.00292298	-1.01419	0.105496	1.31671	339.489	41.2465	-0.249814	0	-0.793539	0.0047949	1.23628	0.150202
0.2	1.01595	312.476	-32.39	-0.252449	0	-0.404151	-0.00323233	-0.994171	0.103052	1.35427	340.563	41.5886	-0.24993	0	-0.793558	0.00490728	1.23405	0.150699
0.21	1.11531	311.534	-32.1805	-0.252886	0	-0.404319	-0.00348742	-0.974122	0.100624	1.38468	341.617	41.936	-0.250039	0	-0.793582	0.00498916	1.23089	0.151101
0.22	1.20118	310.592	-31.9735	-0.253298	0	-0.404482	-0.00369018	-0.954179	0.0982269	1.4075	342.649	42.2889	-0.250139	0	-0.793611	0.00503901	1.22672	0.151399
0.23	1.27424	309.644	-31.7687	-0.25368	0	-0.40464	-0.00384527	-0.934407	0.095868	1.42305	343.659	42.6481	-0.250229	0	-0.793641	0.00505838	1.22157	0.151597
0.24	1.33586	308.689	-31.5653	-0.25403	0	-0.404789	-0.00395936	-0.914925	0.0935567	1.43224	344.645	43.0142	-0.250309	0	-0.793673	0.00505096	1.21543	0.151694
0.25	1.38798	307.729	-31.3627	-0.254345	0	-0.40493	-0.00404099	-0.895928	0.0913098	1.43639	345.608	43.3874	-0.250379	0	-0.793705	0.00502191	1.20832	0.151691
0.26	1.43303	306.771	-31.1605	-0.254624	0	-0.405062	-0.00409962	-0.877611	0.0891441	1.43712	346.548	43.7678	-0.250441	0	-0.793735	0.00497749	1.20028	0.151591
0.27	1.47382	305.825	-30.9592	-0.254866	0	-0.405184	-0.00414499	-0.860105	0.0870701	1.43628	347.461	44.1545	-0.250498	0	-0.793765	0.00492478	1.19139	0.151399
0.28	1.51357	304.903	-30.7599	-0.255073	0	-0.405294	-0.00418739	-0.843532	0.0850989	1.43574	348.34	44.5451	-0.25055	0	-0.793792	0.00487099	1.1818	0.151127
0.29	1.55589	304.021	-30.5638	-0.255246	0	-0.405395	-0.00423728	-0.827967	0.0832369	1.43753	349.175	44.9362	-0.250602	0	-0.793816	0.00482374	1.17169	0.150787
0.3	1.60453	303.198	-30.3727	-0.25539	0	-0.405483	-0.00430455	-0.813401	0.081482	1.44364	349.955	45.3235	-0.250655	0	-0.793837	0.00479024	1.16121	0.150391
0.31	1.66305	302.451	-30.1883	-0.255509	0	-0.40556	-0.00439741	-0.799736	0.0798232	1.45612	350.663	45.7018	-0.250712	0	-0.793854	0.00477762	1.15055	0.149951
0.32	1.73447	301.803	-30.012	-0.255605	0	-0.405623	-0.00452203	-0.786846	0.0782459	1.4771	351.283	46.0652	-0.250771	0	-0.793868	0.0047936	1.14001	0.149494
0.33	1.82095	301.271	-29.8454	-0.255683	0	-0.405674	-0.00468147	-0.774536	0.0767293	1.50815	351.801	46.4072	-0.250833	0	-0.793878	0.00484465	1.13009	0.149074
0.34	1.92372	300.872	-29.6897	-0.255745	0	-0.405711	-0.00487576	-0.762574	0.0752501	1.54986	352.202	46.722	-0.250898	0	-0.793884	0.0049342	1.12129	0.148746
0.35	2.04313	300.619	-29.5464	-0.255796	0	-0.405734	-0.00510221	-0.750718	0.0737846	1.6019	352.477	47.0039	-0.250964	0	-0.793885	0.00506215	1.11386	0.148536
0.36	2.17883	300.525	-29.4169	-0.255835	0	-0.405745	-0.0053554	-0.738668	0.0723045	1.66313	352.615	47.2479	-0.251027	0	-0.793882	0.00522577	1.10796	0.148459
0.37	2.32959	300.603	-29.3026	-0.25586	0	-0.405742	-0.00562689	-0.726078	0.0707777	1.73181	352.611	47.4506	-0.251089	0	-0.793876	0.00542081	1.10372	0.148527
0.38	2.49339	300.864	-29.2046	-0.255873	0	-0.405727	-0.00590581	-0.712622	0.0691737	1.80555	352.461	47.6101	-0.251143	0	-0.793865	0.00564093	1.10116	0.148744
0.39	2.66743	301.315	-29.1237	-0.25587	0	-0.405703	-0.0061792	-0.698007	0.0674662	1.88149	352.161	47.7258	-0.251187	0	-0.793852	0.00587753	1.1001	0.149089
0.4	2.84822	301.961	-29.0606	-0.255851	0	-0.405669	-0.00643267	-0.681976	0.0656331	1.95636	351.713	47.7985	-0.251217	0	-0.793835	0.00612028	1.1003	0.149533
0.41	3.03207	302.804	-29.0162	-0.255812	0	-0.405628	-0.00665189	-0.664305	0.063657	2.02652	351.12	47.8303	-0.251226	0	-0.793815	0.00635708	1.10144	0.150041
0.42	3.21551	303.841	-28.9908	-0.25575	0	-0.40558	-0.00682396	-0.644813	0.0615244	2.08821	350.389	47.8241	-0.251212	0	-0.793791	0.00657506	1.10325	0.150581
0.43	3.39576	305.065	-28.9848	-0.255664	0	-0.405526	-0.00693896	-0.623375	0.0592281	2.13809	349.528	47.784	-0.251171	0	-0.793765	0.00676258	1.10552	0.151137
0.44	3.57117	306.457	-28.9979	-0.255553	0	-0.405462	-0.00699105	-0.599931	0.0567672	2.17333	348.547	47.7144	-0.251104	0	-0.793736	0.00690959	1.10812	0.151697
0.45	3.74146	307.996	-29.0295	-0.255418	0	-0.405392	-0.0069789	-0.5745	0.0541483	2.19157	347.457	47.6205	-0.251009	0	-0.793702	0.00700732	1.11095	0.152261
0.46	3.90702	309.647	-29.0783	-0.255261	0	-0.405317	-0.00690328	-0.547114	0.0513783	2.19087	346.269	47.5077	-0.250889	0	-0.793667	0.00704825	1.11398	0.152837
0.47	4.06867	311.374	-29.142	-0.255081	0	-0.405236	-0.00676729	-0.517898	0.048471	2.16972	344.997	47.3818	-0.250742	0	-0.793631	0.00702568	1.11712	0.153425
0.48	4.22761	313.132	-29.2175	-0.254884	0	-0.405153	-0.00657637	-0.487101	0.0454502	2.12687	343.655	47.2484	-0.250571	0	-0.793594	0.00693306	1.12023	0.154018
0.49	4.38517	314.879	-29.3015	-0.25467	0	-0.405068	-0.00633828	-0.455124	0.0423521	2.0615	342.259	47.1133	-0.250375	0	-0.793559	0.00676441	1.12305	0.154593
0.5	4.54269	316.574	-29.3902	-0.254445	0	-0.404981	-0.00606254	-0.422491	0.0392233	1.97354	340.823	46.9826	-0.250153	0	-0.793528	0.00651607	1.1253	0.155123
0.51	4.70112	318.176	-29.4797	-0.254211	0	-0.404895	-0.00575958	-0.389814	0.0361171	1.86313	339.36	46.8624	-0.249906	0	-0.793502	0.00618558	1.12667	0.155583
0.52	4.8606	319.652	-29.5661	-0.253974	0	-0.404811	-0.00543804	-0.357627	0.0330786	1.73042	337.879	46.7589	-0.249636	0	-0.793484	0.00577103	1.12684	0.155943
0.53	5.02001	320.971	-29.6453	-0.253737	0	-0.404732	-0.00510313	-0.326286	0.0301362	1.57568	336.389	46.677	-0.249344	0	-0.793476	0.00527162	1.12543	0.156163
0.54	5.17736	322.111	-29.7134	-0.253504	0	-0.40466	-0.00475749	-0.295989	0.0273038	1.39981	334.893	46.6211	-0.249035	0	-0.793476	0.00469047	1.12215	0.156217
0.55	5.32988	323.051	-29.7667	-0.253278	0	-0.4046	-0.00440198	-0.26681	0.0245845	1.2046	333.395	46.5946	-0.248709	0	-0.793484	0.00403581	1.11699	0.156108
0.56	5.47369	323.778	-29.8011	-0.25306	0	-0.404551	-0.00403533	-0.238697	0.0219701	0.992611	331.9	46.6	-0.248372	0	-0.793499	0.00331958	1.10997	0.155844
0.57	5.60363	324.281	-29.8118	-0.252849	0	-0.404517	-0.00365537	-0.211535	0.0194468	0.767139	330.413	46.6388	-0.248028	0	-0.793519	0.00255692	1.10128	0.15545
0.58	5.71321	324.55	-29.7932	-0.252642	0	-0.404495	-0.00325997	-0.185189	0.0170001	0.531985	328.941	46.7111	-0.24768	0	-0.793543	0.00176457	1.09108	0.154939
0.59	5.79436	324.584	-29.7404	-0.252437	0	-0.40449	-0.00284748	-0.159508	0.0146151	0.291458	327.495	46.8162	-0.24733	0	-0.79357	0.000960724	1.07951	0.154319
0.6	5.83739	324.384	-29.649	-0.25223	0	-0.4045	-0.00241653	-0.134287	0.0122739	0.050503	326.084	46.9518	-0.24698	0	-0.793598	0.000165222	1.0668	0.153605
0.61	5.83184	323.963	-29.5164	-0.252018	0	-0.404526	-0.0019672	-0.109279	0.00995648	-0.185676	324.715	47.1151	-0.246633	0	-0.793626	-0.00060221	1.05316	0.15281
0.62	5.76765	323.345	-29.3411	-0.251797	0	-0.40457	-0.00150175	-0.084191	0.00763971	-0.411884	323.388	47.3018	-0.246291	0	-0.793653	-0.00132297	1.03872	0.151933
